HIERARCHY
ROOT root
{
	OFFSET	0	13.1	24.9
	CHANNELS 6  Xposition Yposition Zposition Xrotation Yrotation Zrotation
	JOINT spine_1
	{
		OFFSET	0	9.99999	0
		CHANNELS 3  Xrotation Yrotation Zrotation
		JOINT spine_2
		{
			OFFSET	0	112	-10
			CHANNELS 3  Xrotation Yrotation Zrotation
			JOINT spine_3
			{
				OFFSET	0	206.5	19.3
				CHANNELS 3  Xrotation Yrotation Zrotation
				JOINT spine_4
				{
					OFFSET	0	110.4	14.6
					CHANNELS 3  Xrotation Yrotation Zrotation
					JOINT neck_1
					{
						OFFSET	0	71.8	-50.3
						CHANNELS 3  Xrotation Yrotation Zrotation
						JOINT neck_2
						{
							OFFSET	0	86.2	-25.8
							CHANNELS 3  Xrotation Yrotation Zrotation
							JOINT head_ee
							{
								OFFSET	0	179.8	-8.7
								CHANNELS 3  Xrotation Yrotation Zrotation
								End Site
								{
									OFFSET	1	0	0
								}
							}
						}
					}
					JOINT left_clavicle
					{
						OFFSET	-43.2	22.4	-70.8
						CHANNELS 3  Xrotation Yrotation Zrotation
						JOINT left_shoulder
						{
							OFFSET	-93.9	-5.79999	48.7
							CHANNELS 3  Xrotation Yrotation Zrotation
							JOINT left_elbow
							{
								OFFSET	-291.4	-30.8	15.2
								CHANNELS 3  Xrotation Yrotation Zrotation
								JOINT left_lowarm_twist
								{
									OFFSET	-110.7	-3.89999	13.6
									CHANNELS 3  Xrotation Yrotation Zrotation
									JOINT left_hand
									{
										OFFSET	-110.7	-3.89999	13.6
										CHANNELS 3  Xrotation Yrotation Zrotation
										JOINT left_ee
										{
											OFFSET	-80.8	-5.10001	12.1
											CHANNELS 3  Xrotation Yrotation Zrotation
											End Site
											{
												OFFSET	1	0	0
											}
										}
									}
								}
							}
						}
					}
					JOINT right_clavicle
					{
						OFFSET	43.2	22.4	-70.8
						CHANNELS 3  Xrotation Yrotation Zrotation
						JOINT right_shoulder
						{
							OFFSET	93.9	-5.79999	48.7
							CHANNELS 3  Xrotation Yrotation Zrotation
							JOINT right_elbow
							{
								OFFSET	291.4	-30.8	15.2
								CHANNELS 3  Xrotation Yrotation Zrotation
								JOINT right_lowarm_twist
								{
									OFFSET	110.7	-3.89999	13.6
									CHANNELS 3  Xrotation Yrotation Zrotation
									JOINT right_hand
									{
										OFFSET	110.7	-3.89999	13.6
										CHANNELS 3  Xrotation Yrotation Zrotation
										JOINT right_ee
										{
											OFFSET	80.8	-5.10001	12.1
											CHANNELS 3  Xrotation Yrotation Zrotation
											End Site
											{
												OFFSET	1	0	0
											}
										}
									}
								}
							}
						}
					}
				}
			}
		}
	}
	JOINT left_hip
	{
		OFFSET	-82.8	-127.5	0.300001
		CHANNELS 3  Xrotation Yrotation Zrotation
		JOINT left_knee
		{
			OFFSET	-28.2	-396.7	2.2
			CHANNELS 3  Xrotation Yrotation Zrotation
			JOINT left_ankle
			{
				OFFSET	-11.7	-411.3	35.4
				CHANNELS 3  Xrotation Yrotation Zrotation
				JOINT left_toes
				{
					OFFSET	0	-60	-88.6
					CHANNELS 3  Xrotation Yrotation Zrotation
					JOINT left_foot_ee
					{
						OFFSET	-22.5	-16.5	-42.2
						CHANNELS 3  Xrotation Yrotation Zrotation
						End Site
						{
							OFFSET	1	0	0
						}
					}
				}
			}
		}
	}
	JOINT right_hip
	{
		OFFSET	82.8	-127.5	0.300001
		CHANNELS 3  Xrotation Yrotation Zrotation
		JOINT right_knee
		{
			OFFSET	28.2	-396.7	2.2
			CHANNELS 3  Xrotation Yrotation Zrotation
			JOINT right_ankle
			{
				OFFSET	11.7	-411.3	35.4
				CHANNELS 3  Xrotation Yrotation Zrotation
				JOINT right_toes
				{
					OFFSET	0	-60	-88.6
					CHANNELS 3  Xrotation Yrotation Zrotation
					JOINT right_foot_ee
					{
						OFFSET	22.5	-16.5	-42.2
						CHANNELS 3  Xrotation Yrotation Zrotation
						End Site
						{
							OFFSET	1	0	0
						}
					}
				}
			}
		}
	}
}
MOTION
Frames: 11
Frame Time: 0.02
778.88522622 616.37 -1799.15497236 4.61193715367 34.6089919224 10.417684088 3.73851 -0.612936 -4.0306 3.74748 -0.355434 -4.06136 3.76809 0.23926 -4.06984 3.74521 -0.405956 -4.05663 -22.3726 -19.0348 -4.35647 -24.7153 -34.6599 -13.7364 -0.0 0.0 -0.0 9.15915 12.5367 17.0487 -22.9274 -11.743 47.1114 2.65738 -52.7686 1.3184 -5.09927 -0.207336 0.617765 -2.77757 1.78712 -18.008 -0.0 0.0 -0.0 3.07994 2.25075 -5.78391 -41.9543 5.97912 -60.5554 0.97561 25.7935 -0.223391 9.42378 -0.23549 1.17941 1.14259 -6.72018 -10.3074 0.0 0.0 0.0 -1.51495 -9.69762 -13.5299 -1.05385 0.0419566 0.156283 22.7143 27.4738 -3.26961 -32.7243 0.0 0.0 -0.0 0.0 -0.0 15.2592 28.6142 -16.5486 -37.8331 0.334698 -5.69253 14.4262 -16.2873 2.04069 7.12335 -0.0 -0.0 0.0 0.0 0.0 
767.013802987 617.521 -1808.31516863 3.99024958333 34.4931303997 11.0767282712 3.9557 -0.571983 -4.13978 3.96518 -0.307633 -4.16772 3.98213 0.286584 -4.16922 3.95808 -0.374878 -4.16222 -24.2911 -18.6142 -4.02653 -26.8652 -34.0861 -13.9321 -0.0 0.0 -0.0 9.12835 13.1777 16.926 -21.878 -10.6273 46.565 3.05343 -56.5186 1.64158 -5.20754 -0.212333 0.630676 -2.82202 2.03291 -18.1957 -0.0 0.0 -0.0 2.78554 1.4146 -5.266 -42.3361 5.4756 -60.7131 0.891566 23.8286 -0.188119 8.8125 -0.22613 1.10189 1.14296 -7.15915 -10.4776 0.0 0.0 0.0 -3.70079 -9.18424 -13.7313 2.86259 -0.128422 -0.420423 21.7829 27.1052 -3.14061 -32.8657 0.0 0.0 -0.0 0.0 -0.0 18.0289 26.9629 -16.9115 -37.2912 0.303492 -5.61532 14.6436 -16.3207 2.06993 6.42188 -0.0 -0.0 0.0 0.0 0.0 
761.176268637 618.837 -1814.88632261 3.04757971582 33.7182004989 11.9889767696 4.48416 -0.560727 -4.23053 4.49407 -0.290641 -4.25757 4.50854 0.277037 -4.25847 4.48346 -0.398364 -4.24886 -25.338 -18.4055 -2.18054 -28.2063 -34.4548 -12.5854 -0.0 0.0 -0.0 9.12256 13.7195 16.8567 -20.5381 -8.84751 46.0302 3.37724 -59.1179 1.91572 -5.43395 -0.222859 0.657643 -2.87128 1.44838 -18.8365 -0.0 0.0 -0.0 2.79291 0.638629 -5.33636 -42.7348 5.15705 -61.2067 0.81678 22.0286 -0.15898 7.89227 -0.21048 0.985385 1.36751 -8.26459 -12.3833 0.0 0.0 0.0 -4.89374 -8.38745 -14.3376 6.21932 -0.305595 -0.904693 20.3139 26.9667 -2.94424 -33.2285 0.0 0.0 -0.0 0.0 -0.0 19.4096 23.143 -16.1253 -30.89 -0.00894787 -4.68352 12.0379 -15.184 1.71304 5.56079 -0.0 -0.0 0.0 0.0 0.0 
755.644270167 619.072 -1821.30082084 1.85625519674 31.8690995178 12.516787546 4.82099 -0.486271 -4.33008 4.8314 -0.210018 -4.3522 4.83892 0.34468 -4.34362 4.81276 -0.344975 -4.3436 -26.0508 -17.9734 -0.679954 -29.0118 -34.2081 -11.22 -0.0 0.0 -0.0 8.86056 14.1407 16.3544 -19.8995 -8.1395 45.626 3.66624 -61.1462 2.16637 -5.1483 -0.209596 0.623613 -2.76875 1.21021 -18.2349 -0.0 0.0 -0.0 2.41998 0.487041 -4.62465 -42.9408 5.332 -61.3134 0.776389 21.0367 -0.144154 7.31287 -0.199666 0.912163 1.51989 -8.2842 -13.4044 0.0 0.0 0.0 -5.46435 -8.47669 -14.64 7.80969 -0.399402 -1.1304 18.8722 26.6371 -2.74559 -34.0386 0.0 0.0 -0.0 0.0 -0.0 20.2794 22.4442 -14.9995 -27.2721 -0.138848 -4.14355 11.3268 -13.6751 1.61093 4.90772 -0.0 -0.0 0.0 0.0 0.0 
753.174923294 621.082 -1826.49969233 0.562247486635 31.3110958759 12.9905308727 5.16235 -0.417739 -4.30053 5.17262 -0.143499 -4.31836 5.17417 0.381311 -4.30391 5.14846 -0.302547 -4.31015 -27.2021 -17.3666 3.46279 -30.4095 -34.5509 -7.48056 -0.0 0.0 -0.0 8.53907 14.3273 15.7799 -19.6579 -6.96097 45.8648 4.03829 -63.4217 2.4958 -3.71812 -0.145752 0.452274 -2.66285 2.5021 -16.8505 -0.0 0.0 -0.0 2.5449 0.0696084 -4.89794 -42.9662 4.96257 -61.7059 0.716806 19.5492 -0.123488 7.49982 -0.203237 0.935777 1.5907 -8.2403 -13.861 0.0 0.0 0.0 -3.9868 -8.52882 -14.5309 5.85805 -0.285164 -0.853071 20.371 27.0938 -2.95419 -33.3691 0.0 0.0 -0.0 0.0 -0.0 18.7358 18.1272 -14.3245 -17.7452 -0.315662 -2.694 7.37499 -13.8059 1.0628 3.66298 -0.0 -0.0 0.0 0.0 0.0 
743.818662093 624.458 -1835.11206734 0.715592358468 32.1804290353 12.6456125578 5.2995 -0.547235 -4.30503 5.30977 -0.272449 -4.33106 5.32066 0.243395 -4.33279 5.29474 -0.44329 -4.31695 -28.943 -16.4894 8.89093 -32.2372 -34.5683 -2.37065 -0.0 0.0 -0.0 8.01932 14.7747 14.8502 -19.2482 -5.57096 47.0017 4.69779 -66.7235 3.0941 -1.67863 -0.0621615 0.205339 -2.33927 3.57018 -14.0969 -0.0 0.0 -0.0 2.51842 -0.534097 -4.892 -43.0247 4.84997 -61.7634 0.643804 17.6887 -0.100177 7.64089 -0.205879 0.953603 1.69461 -8.22711 -14.5519 0.0 0.0 0.0 -3.19845 -8.93363 -14.0396 2.40308 -0.106392 -0.353367 21.8947 27.1821 -3.15678 -33.2088 0.0 0.0 -0.0 0.0 -0.0 16.9341 14.0386 -13.5184 -9.80221 -0.277821 -1.47684 3.34687 -13.1151 0.487362 2.13184 -0.0 -0.0 0.0 0.0 0.0 
738.185591608 622.322 -1843.00039016 -0.432275050968 31.8772499819 12.519106752 5.57522 -0.518252 -4.26676 5.58531 -0.245952 -4.29103 5.59344 0.244553 -4.29111 5.56802 -0.435583 -4.27598 -27.851 -15.6249 11.6022 -30.6881 -34.1758 1.13715 -0.0 0.0 -0.0 7.45877 15.1124 13.8781 -19.958 -4.58456 47.3328 5.20369 -68.771 3.5624 -0.675903 -0.0243047 0.0828955 -2.14136 2.61964 -13.208 -0.0 0.0 -0.0 2.73005 -0.421508 -5.29035 -42.7212 5.01591 -61.8313 0.587514 16.2271 -0.0837581 7.33391 -0.200072 0.91482 1.41155 -10.5144 -13.4993 0.0 0.0 0.0 -3.42128 -10.0579 -13.5397 1.28605 -0.0550901 -0.189654 23.865 26.5649 -3.39807 -32.905 0.0 0.0 -0.0 0.0 -0.0 16.0625 12.0579 -13.1033 -5.45609 -0.18588 -0.816402 1.3706 -11.6451 0.200234 1.20495 -0.0 -0.0 0.0 0.0 0.0 
724.648595377 625.453 -1855.00487695 -0.924307012137 33.6087428434 12.7762830031 5.89292 -0.70432 -4.02822 5.90183 -0.446784 -4.06479 5.92351 -0.00491107 -4.08923 5.90077 -0.650133 -4.03731 -27.602 -14.9095 10.4969 -30.1197 -32.4713 0.716976 -0.0 0.0 -0.0 6.84891 14.594 12.891 -22.6032 -3.81328 50.0509 5.43342 -69.5908 3.77715 0.310145 0.0108244 -0.0381307 -1.89491 -0.0516732 -12.7855 -0.0 0.0 -0.0 3.34292 -0.614527 -6.48122 -41.9154 5.87044 -61.9832 0.527534 14.6455 -0.0677919 7.03989 -0.194316 0.877703 1.07496 -13.1373 -12.2488 0.0 0.0 0.0 -3.48526 -11.8506 -13.6481 -1.5745 0.06162 0.233765 25.6605 25.5619 -3.60158 -32.7224 0.0 0.0 -0.0 0.0 -0.0 14.3297 11.6534 -12.3587 -3.81191 -0.138072 -0.568611 -0.75826 -8.81943 -0.111164 0.275958 -0.0 -0.0 0.0 0.0 0.0 
724.96683064 625.453 -1855.58766849 -0.923179164813 33.5032849783 12.7742425818 5.89292 -0.70432 -4.02822 5.90183 -0.446784 -4.06479 5.92351 -0.00491107 -4.08923 5.90077 -0.650133 -4.03731 -27.602 -14.9095 10.4969 -30.1197 -32.4713 0.716976 -0.0 0.0 -0.0 6.84891 14.594 12.891 -22.6032 -3.81328 50.0509 5.43342 -69.5908 3.77715 0.310145 0.0108244 -0.0381307 -1.89491 -0.0516732 -12.7855 -0.0 0.0 -0.0 3.34292 -0.614527 -6.48122 -41.9154 5.87044 -61.9832 0.527534 14.6455 -0.0677919 7.03989 -0.194316 0.877703 1.07496 -13.1373 -12.2488 0.0 0.0 0.0 -3.48526 -11.8506 -13.6481 -1.5745 0.06162 0.233765 25.6605 25.5619 -3.60158 -32.7224 0.0 0.0 -0.0 0.0 -0.0 14.3297 11.6534 -12.3587 -3.81191 -0.138072 -0.568611 -0.75826 -8.81943 -0.111164 0.275958 -0.0 -0.0 0.0 0.0 0.0 
702.124890131 624.077 -1871.29876612 -1.87346733142 33.5424512958 12.5478957766 6.09298 -0.581296 -3.67876 6.10044 -0.346194 -3.70824 6.11408 0.0443459 -3.72408 6.09514 -0.543954 -3.68446 -29.7989 -13.6545 2.55805 -31.8659 -26.9064 -6.24557 -0.0 0.0 -0.0 7.1151 13.6018 13.3988 -26.9182 -1.92684 54.4934 4.42497 -65.4564 2.84468 2.69659 0.087175 -0.33336 -1.76325 0.33153 -11.7077 -0.0 0.0 -0.0 3.25818 0.104576 -6.27374 -40.4728 7.82192 -62.3616 0.79137 21.4061 -0.149577 6.92698 -0.192054 0.863456 1.46195 -12.1635 -14.4183 0.0 0.0 0.0 -2.14522 -12.8581 -11.8084 -7.38657 0.232906 1.10891 25.0891 27.1054 -3.56482 -31.5195 0.0 0.0 -0.0 0.0 -0.0 12.9713 12.0482 -11.4902 -3.32113 -0.122423 -0.494915 0.711936 -5.61161 0.104129 1.87902 -0.0 -0.0 0.0 0.0 0.0 
703.052207542 624.077 -1872.95493068 -1.86743908524 33.2625301468 12.5369456555 6.09298 -0.581296 -3.67876 6.10044 -0.346194 -3.70824 6.11408 0.0443459 -3.72408 6.09514 -0.543954 -3.68446 -29.7989 -13.6545 2.55805 -31.8659 -26.9064 -6.24557 -0.0 0.0 -0.0 7.1151 13.6018 13.3988 -26.9182 -1.92684 54.4934 4.42497 -65.4564 2.84468 2.69659 0.087175 -0.33336 -1.76325 0.33153 -11.7077 -0.0 0.0 -0.0 3.25818 0.104576 -6.27374 -40.4728 7.82192 -62.3616 0.79137 21.4061 -0.149577 6.92698 -0.192054 0.863456 1.46195 -12.1635 -14.4183 0.0 0.0 0.0 -2.14522 -12.8581 -11.8084 -7.38657 0.232906 1.10891 25.0891 27.1054 -3.56482 -31.5195 0.0 0.0 -0.0 0.0 -0.0 12.9713 12.0482 -11.4902 -3.32113 -0.122423 -0.494915 0.711936 -5.61161 0.104129 1.87902 -0.0 -0.0 0.0 0.0 0.0 
